<svg xmlns="http://www.w3.org/2000/svg" viewBox="0 0 144.46 130.38"><defs><style>.cls-1{fill:#5cebdf;}.cls-2{fill:#fff;}</style></defs><g id="Layer_2" data-name="Layer 2"><g id="Layer_1-2" data-name="Layer 1"><path class="cls-1" d="M65.62,79.26H40.06C18.32,79.26,0,61.79,0,40.06A39.65,39.65,0,0,1,39.63,0h26A13.73,13.73,0,0,1,52,13.64H40.06c-14.07,0-26,11.08-26.42,25.14a25.91,25.91,0,0,0,26,26.42H51.56V53.27A13.73,13.73,0,0,1,65.2,39.63h0V79.26Z"/><path class="cls-1" d="M79.26,105.25h0V65.62h25.57c14.06,0,26-11.08,26.42-25.14a25.93,25.93,0,0,0-26-26.42h-26A13.72,13.72,0,0,1,92.9.43h11.5c21.73,0,40.06,17.47,40.06,39.2a39.65,39.65,0,0,1-39.63,40.06H92.9V91.62A13.73,13.73,0,0,1,79.26,105.25Z"/><path class="cls-2" d="M14.11,122.17h7a1.67,1.67,0,0,1,.06.6c0,.2.07.47.07.67a8.1,8.1,0,0,1-.4,2.6,6.27,6.27,0,0,1-1.33,2.2,7.75,7.75,0,0,1-2.27,1.61,7.45,7.45,0,0,1-3.07.53,8.62,8.62,0,0,1-2.94-.53,7.44,7.44,0,0,1-2.4-1.54,7.77,7.77,0,0,1-1.6-8.41,6.58,6.58,0,0,1,1.6-2.33,7.61,7.61,0,0,1,2.4-1.54,6.43,6.43,0,0,1,2.94-.66,7.94,7.94,0,0,1,3.13.6,6.43,6.43,0,0,1,2.34,1.67l-1.87,1.8a6.22,6.22,0,0,0-1.53-1.14,5.09,5.09,0,0,0-2.07-.4,5.79,5.79,0,0,0-1.87.34,3.74,3.74,0,0,0-1.53,1,4.11,4.11,0,0,0-1.07,1.53,5.23,5.23,0,0,0,0,4,4.11,4.11,0,0,0,1.07,1.53,6,6,0,0,0,1.53,1,5.79,5.79,0,0,0,1.87.33,5.56,5.56,0,0,0,1.93-.33,3.79,3.79,0,0,0,1.34-.87,3.59,3.59,0,0,0,.67-.93,6.1,6.1,0,0,0,.46-1.2H14.11Z"/><path class="cls-2" d="M29.06,129h-.14a3.66,3.66,0,0,1-1.13.93,3.06,3.06,0,0,1-1.67.4,3.1,3.1,0,0,1-1.4-.26,3.49,3.49,0,0,1-1.2-.67,3.3,3.3,0,0,1-.8-1.07,3,3,0,0,1-.27-1.33,2.88,2.88,0,0,1,1.14-2.47,3.71,3.71,0,0,1,1.26-.67,6.06,6.06,0,0,1,1.61-.2,11.35,11.35,0,0,1,1.6.13,8.83,8.83,0,0,1,1,.34v-.27a1.57,1.57,0,0,0-.6-1.27,2.41,2.41,0,0,0-1.54-.53,2.83,2.83,0,0,0-2.27,1.13l-1.86-1.26A5.08,5.08,0,0,1,27.06,120,4.9,4.9,0,0,1,30.53,121a4.06,4.06,0,0,1,1.2,3.13v5.88H29.12V129Zm0-2.94a5.85,5.85,0,0,0-.94-.33,4.88,4.88,0,0,0-1.06-.13,2.38,2.38,0,0,0-1.47.4,1.25,1.25,0,0,0-.54,1,1,1,0,0,0,.47.93,1.75,1.75,0,0,0,1.14.33,2,2,0,0,0,.93-.2,2.59,2.59,0,0,0,.73-.46,2.67,2.67,0,0,0,.47-.74A1.27,1.27,0,0,0,29.06,126Z"/><path class="cls-2" d="M32.13,120.17h3l2.47,6.21h.13l2.47-6.21h2.94L38.93,130h-2.6Z"/><path class="cls-2" d="M45.54,118.9a2.27,2.27,0,0,1-.67-.13,1.41,1.41,0,0,1-.87-.87,1.77,1.77,0,0,1,0-1.33,1.41,1.41,0,0,1,.87-.87,1.9,1.9,0,0,1,.67-.13,1.6,1.6,0,0,1,1.2.46,1.78,1.78,0,0,1,0,2.41A1.93,1.93,0,0,1,45.54,118.9ZM44.27,130v-9.81h2.6V130Z"/><path class="cls-2" d="M51.54,121.51h.14A4.33,4.33,0,0,1,53,120.3a3.28,3.28,0,0,1,1.8-.4,4,4,0,0,1,1.6.27,2.42,2.42,0,0,1,1.13.87,3.47,3.47,0,0,1,.67,1.33,7.11,7.11,0,0,1,.2,1.74v5.94h-2.6v-5.61a2.32,2.32,0,0,0-.47-1.6,1.92,1.92,0,0,0-1.4-.53,2,2,0,0,0-.93.2,1.4,1.4,0,0,0-.67.6,2.89,2.89,0,0,0-.47.93,5.67,5.67,0,0,0-.13,1.14V130h-2.6v-9.81h2.46Z"/><path class="cls-2" d="M60.89,130V115.7h5a6.15,6.15,0,0,1,1.93.33,3.92,3.92,0,0,1,1.54.94,5.71,5.71,0,0,1,1.07,1.4,4,4,0,0,1,.4,1.8,4.58,4.58,0,0,1-.4,1.87,4.4,4.4,0,0,1-1.07,1.4,4.47,4.47,0,0,1-1.54.93,5.62,5.62,0,0,1-1.93.34H63.55V130ZM66,122.17a2,2,0,0,0,1.6-.6,2.15,2.15,0,0,0,.53-1.4,2.61,2.61,0,0,0-.13-.73,1,1,0,0,0-.4-.6,1.33,1.33,0,0,0-.67-.4,2,2,0,0,0-.93-.14H63.55v3.94H66Z"/><path class="cls-2" d="M81.24,127.64a5.54,5.54,0,0,1-1.81,1.94,5.25,5.25,0,0,1-2.8.73,5.16,5.16,0,0,1-2.07-.4,5.35,5.35,0,0,1-1.66-1.06,4.89,4.89,0,0,1-1.07-1.67,5.16,5.16,0,0,1-.4-2.07,4.8,4.8,0,0,1,.4-2,5.54,5.54,0,0,1,1.07-1.67,4.79,4.79,0,0,1,3.67-1.54,5,5,0,0,1,2.06.4,4.39,4.39,0,0,1,1.54,1.07,4.84,4.84,0,0,1,.93,1.6,6.75,6.75,0,0,1,.34,2.07v.67H74a2.27,2.27,0,0,0,.33,1,3.29,3.29,0,0,0,.6.73,2.19,2.19,0,0,0,.81.4,3.68,3.68,0,0,0,.86.14,2.6,2.6,0,0,0,1.47-.4,2.69,2.69,0,0,0,.93-1Zm-2.41-3.8a1.21,1.21,0,0,0-.2-.6,1.72,1.72,0,0,0-.46-.6,2.05,2.05,0,0,0-.74-.47,2.25,2.25,0,0,0-1-.2,2.32,2.32,0,0,0-2.33,1.8l4.73.07Z"/><path class="cls-2" d="M83,120.17h2.47v1.34h.13a2.52,2.52,0,0,1,.47-.67,2.74,2.74,0,0,1,.67-.54,4.22,4.22,0,0,1,.8-.33,3.74,3.74,0,0,1,.87-.13,2.83,2.83,0,0,1,.86.13,2.47,2.47,0,0,1,.6.27l-.66,2.33-.54-.2a2.51,2.51,0,0,0-.73-.06,2.55,2.55,0,0,0-1,.2,2,2,0,0,0-.74.6,3.36,3.36,0,0,0-.46.86,3,3,0,0,0-.2,1.14v4.8H82.9v-9.74Z"/><path class="cls-2" d="M100,127.64a5.54,5.54,0,0,1-1.81,1.94,5.25,5.25,0,0,1-2.8.73,5.16,5.16,0,0,1-2.07-.4,5.35,5.35,0,0,1-1.66-1.06,4.75,4.75,0,0,1-1.07-1.67,5.16,5.16,0,0,1-.4-2.07,4.8,4.8,0,0,1,.4-2,4.93,4.93,0,0,1,4.74-3.21,5,5,0,0,1,2.06.4,4.39,4.39,0,0,1,1.54,1.07,4.84,4.84,0,0,1,.93,1.6,6.75,6.75,0,0,1,.34,2.07v.67H92.78a2.27,2.27,0,0,0,.33,1,3.29,3.29,0,0,0,.6.73,2.22,2.22,0,0,0,.8.4,3.84,3.84,0,0,0,.87.14,2.6,2.6,0,0,0,1.47-.4,2.69,2.69,0,0,0,.93-1Zm-2.34-3.8a1.32,1.32,0,0,0-.2-.6,2,2,0,0,0-.47-.6,2.09,2.09,0,0,0-.73-.47,2.56,2.56,0,0,0-2.47.27,2.37,2.37,0,0,0-.87,1.33l4.74.07Z"/><path class="cls-2" d="M103.06,118.9a2.27,2.27,0,0,1-.67-.13,1.35,1.35,0,0,1-.87-.87,1.77,1.77,0,0,1,0-1.33,1.35,1.35,0,0,1,.87-.87,1.9,1.9,0,0,1,.67-.13,1.58,1.58,0,0,1,1.66,1.67,1.47,1.47,0,0,1-.46,1.13A1.7,1.7,0,0,1,103.06,118.9ZM101.79,130v-9.81h2.6V130Z"/><path class="cls-2" d="M106.66,120.17h2.47v1.34h.13a2.31,2.31,0,0,1,.47-.67,2.74,2.74,0,0,1,.67-.54,4.22,4.22,0,0,1,.8-.33,3.66,3.66,0,0,1,.86-.13,2.85,2.85,0,0,1,.87.13,2.47,2.47,0,0,1,.6.27l-.67,2.33c-.13-.06-.33-.13-.53-.2a3.15,3.15,0,0,0-1.73.14,2,2,0,0,0-.74.6,3.73,3.73,0,0,0-.47.86,3.25,3.25,0,0,0-.2,1.14v4.8h-2.6v-9.74Z"/><path class="cls-2" d="M120.67,129h-.13a3.82,3.82,0,0,1-1.14.93,3.06,3.06,0,0,1-1.67.4,3.1,3.1,0,0,1-1.4-.26,3.69,3.69,0,0,1-1.2-.67,3.3,3.3,0,0,1-.8-1.07,3,3,0,0,1-.27-1.33,2.88,2.88,0,0,1,1.14-2.47,3.67,3.67,0,0,1,1.27-.67,5.93,5.93,0,0,1,1.6-.2,11.22,11.22,0,0,1,1.6.13,8.83,8.83,0,0,1,1,.34v-.27a1.57,1.57,0,0,0-.6-1.27,2.38,2.38,0,0,0-1.53-.53,2.81,2.81,0,0,0-2.27,1.13l-1.87-1.26a5.1,5.1,0,0,1,4.27-1.94,4.9,4.9,0,0,1,3.47,1.07,4.06,4.06,0,0,1,1.2,3.13v5.88h-2.6l-.07-1.07Zm0-2.94a5.75,5.75,0,0,0-.93-.33,5.06,5.06,0,0,0-1.07-.13,2.38,2.38,0,0,0-1.47.4,1.26,1.26,0,0,0-.53,1,1,1,0,0,0,.46.93,1.75,1.75,0,0,0,1.14.33,2,2,0,0,0,.93-.2,1.92,1.92,0,0,0,1.2-1.2A1.27,1.27,0,0,0,120.67,126Z"/><path class="cls-2" d="M126.74,129.05a1,1,0,0,1-.26.73,1.08,1.08,0,0,1-.74.33.83.83,0,0,1-.73-.33,1.08,1.08,0,0,1-.34-.73.86.86,0,0,1,.34-.74,1,1,0,0,1,.73-.27,1,1,0,0,1,.74.27A1.43,1.43,0,0,1,126.74,129.05Z"/><path class="cls-2" d="M130,120.1a.77.77,0,0,1-.27.67.86.86,0,0,1-.67.27.79.79,0,0,1-.67-.27.85.85,0,0,1-.26-.67.76.76,0,0,1,.26-.66.86.86,0,0,1,.67-.27.77.77,0,0,1,.67.27A1,1,0,0,1,130,120.1Zm-.34,2.54V130h-1.4v-7.34Z"/><path class="cls-2" d="M131.28,122.64h1.33v1h.07a2.17,2.17,0,0,1,1-.87,3,3,0,0,1,3.4.47,3.23,3.23,0,0,1,.74,2.2v4.61h-1.4v-4.54a1.62,1.62,0,0,0-1.8-1.8,1.8,1.8,0,0,0-1.41.66,2.36,2.36,0,0,0-.53,1.61v4.07h-1.4Z"/></g></g></svg>